<svg preserveAspectRatio="xMidYMid meet" data-bbox="0 0 79 70" xmlns="http://www.w3.org/2000/svg" viewBox="0 0 79 70" height="70" width="79" data-type="color" role="img" aria-label="Layer 1"><defs><style>#comp-m9fsvye12_r_comp-m6pplxd9 svg [data-color="1"] {fill: #FFFFFF;}</style></defs>
    <g>
        <path fill="#ffffff" d="m45.122 59.232-.007.007c-.3.328-.805.347-1.294.365-.148.005-.288.01-.411.023l-.024.002c-1.065.096-2.323.413-2.668.837-.063.078-.076.138-.074.187l.152.514c.245.828.457 1.68.63 2.535q.108.521.197 1.021c.184 1.086.316 1.954.409 2.93v.01l.014.18c.047.612.097 1.59-.654 2.157h-1.98c-.172-.058-.27-.114-.32-.174-.154-.19-.298-.37-.429-.467-.369-.275-.624-.172-1.093.18a6 6 0 0 1-.79.461h-8.649c-.618-.288-1.383-.69-1.627-1.141l-.085-.158c-.868-1.58-.955-3.359-.92-5.045.09-3.065.763-5.412 2.12-7.388 1.04-1.482 2.457-2.782 3.575-3.75.12-.106.255-.22.386-.329.289-.24.585-.487.758-.687a.5.5 0 0 0 .097-.157c.006-.033-.006-.19-.794-.695l-.1-.064c-.33-.214-.71-.478-1.021-.817-1.245-1.345-1.037-3.85-.063-5.346l.007-.01c.864-1.248 1.93-2.1 3.352-2.68l.01-.004c.612-.23 1.678-.474 2.335-.466h.014c1.284.056 2.622.183 3.629 1.058l.01.01c.4.373.712.89.925 1.537.79 2.284.599 3.795-.537 4.25-.392.156-.54.496-.747 1.038-.096.25-.195.509-.34.755-.728 1.26-1.114 1.837-2.607 2.298l-.023.008c-.52.17-.769.29-.78.518v.011c-.027.39.112 1.045.236 1.624.056.26.109.506.148.732q.076.328.136.641c.127.64.237 1.192.574 1.643.395.448 1.129.325 2.045.12l.264-.059a96 96 0 0 1 1.746-.397l.155-.032c1.06-.219 1.825-.377 2.811-.115.505.132 1.314.668 1.519 1.33a1.01 1.01 0 0 1-.217.998" clip-rule="evenodd" fill-rule="evenodd" data-color="1"></path>
        <path fill="#ffffff" d="m61.492 62.884-.952 2.436-1.075.059v2.019c0 .068.057.125.126.125.227 0 .44.098.586.268s.208.395.172.615l-.003.023-.44 1.57H46.117l.002-.238c.002-.24-.01-.441-.013-.757-.004-.414-.004-.321.001-.832l-1.693-.027h-.013a.85.85 0 0 1-.784-.84v-2.36c0-.438.346-.792.788-.805l.642-.021c.034-.155.076-.211.127-.48l-3.065-.01a.67.67 0 0 1-.579-.329c-.122-.204.027-.603.143-.812l.22-.393a.67.67 0 0 1 .589-.345h3.26a.16.16 0 0 0 .15-.107l2.605-7.927a.755.755 0 0 1 .684-.516l11.4-.49h.034a.748.748 0 0 1 .73.925c-.321 1.27-1.411 5.11-1.996 7.173-.123.432-.23.806-.292 1.028.22.013.531.013.694.013h1.024a.77.77 0 0 1 .634.33c.143.206.174.47.083.704z" clip-rule="evenodd" fill-rule="evenodd" data-color="1"></path>
        <path fill="#414042" d="M39.898 70h-3.359c.192-.25.389-.607.792-.913.539-.41 1.005-.607 1.572-.18.327.248.614.762.995 1.093" data-color="2"></path>
        <path fill="#414042" d="M0 70h28.278c-.516-.38-1.912-3.946-1.988-6.368-.075-2.422.236-4.197 1.988-7.045 1.753-2.85 4.644-4.533 4.742-5.013.099-.48-1.7-1.63-1.965-1.919-1.115-1.219-1.221-2.727-.015-4.745s2.307-2.94 4.606-2.925 3.353.51 4.4 1.706c1.047 1.188 1.085 3.77-.068 4.235-.827.335-.865 1.264-1.26 1.942-.66 1.158-.963 1.66-2.29 2.072-.456.153-1.055.335-1.078.907-.046.632.69 4.28 1.153 4.867s1.798.396 2.67.213c.562-.137 3.468-.785 4.371-.54.546.144 1.609.967 1.055 1.606-.235.26-.896.19-1.389.244h-.015c-.781.069-3.18.434-3.042 1.516 0 0 .599 2.178.758 3.009.069.335.486 2.856.584 3.846.038.61.175 1.82-.235 2.392h5.266v-2.323l-2.056-.03a.4.4 0 0 1-.372-.404V64.92c0-.199.16-.366.357-.374l.667-.023a.364.364 0 0 0 .35-.29c.052-.228.227-1.027.227-1.027h-3.49c-.175-.016-.289-.198-.205-.358l.364-.541a.22.22 0 0 1 .205-.122h3.164c.25 0 .47-.16.546-.396l2.527-7.808a.3.3 0 0 1 .28-.213l11.07-.48a.306.306 0 0 1 .312.381c-.425 1.691-2.246 8.15-2.277 8.288-.075.289.114.327.57.327h.735c.228 0 .304.046.304.442v1.828c0 .198-.16.365-.364.365h-.501a.32.32 0 0 0-.304.32v2.065c0 .297.243.57.547.57.303 0 .356.176.318.374V70h14.204c-.432-1.782-4.09-14.937-34.917-45.115l-.076-.003c-1.244 3.023-2.603 6.035-4.112 8.937-4.454 8.425-11.1 19.47-19.447 27.27l.008-.008c-3.695 3.442-7.724 6.26-12.042 7.929-.834.282-1.532.518-2.056.7-.296.084-.59.123-.887.2z" data-color="2"></path>
        <path fill="#ED0973" d="M79 69.66S75.472 45.366 34.97 0c0 0-13.513 48.322-34.97 70 .053-.015.114-.023.167-.038.296-.076.6-.16.895-.244.524-.183 1.222-.419 2.056-.7 4.318-1.669 8.347-4.487 12.042-7.93 8.346-7.8 14.992-18.844 19.446-27.269 1.51-2.902 2.936-5.91 4.18-8.934l1.442 1.195c5.63 4.655 11.184 9.46 16.306 14.67 7.618 7.884 14.803 16.324 20.455 25.761.387.67 1.347 2.463 1.696 3.148z" data-color="3"></path>
        <path fill="#ED1B2F" d="M18.519 16.194c-4.97-4.99-13.627 0-13.627 0V31.16s8.657-4.99 13.627 0c.63.632 1.94 1.462 2.752 1.805 2.284-5.027 4.443-10.547 6.271-15.574-2.413 1.051-5.853 1.986-9.024-1.198" data-color="4"></path>
    </g>
</svg>